<?xml version="1.0" standalone="no"?>
<!DOCTYPE svg PUBLIC "-//W3C//DTD SVG 20010904//EN"
 "http://www.w3.org/TR/2001/REC-SVG-20010904/DTD/svg10.dtd">
<svg version="1.0" xmlns="http://www.w3.org/2000/svg"
 width="255.000000pt" height="80.000000pt" viewBox="0 0 255.000000 80.000000"
 preserveAspectRatio="xMidYMid meet">

<g transform="translate(0.000000,80.000000) scale(0.100000,-0.100000)"
fill="#000000" stroke="none">
<path d="M400 791 c-56 -18 -94 -46 -197 -142 -59 -56 -110 -107 -112 -113 -3
-7 1 -7 11 1 16 13 125 56 171 67 24 6 27 4 27 -19 0 -14 5 -25 11 -25 7 0 9
10 7 25 -4 16 -1 25 8 25 7 0 14 -14 16 -32 4 -46 28 -49 28 -4 0 20 5 36 10
36 6 0 10 -22 10 -50 l0 -50 44 0 c25 0 48 -5 51 -10 11 -18 -59 -77 -103 -89
-23 -7 -85 -10 -138 -9 l-96 3 66 48 c81 60 86 67 43 67 -28 0 -55 -16 -141
-82 l-107 -83 141 -3 140 -3 0 -40 c0 -24 4 -38 10 -34 5 3 10 21 10 39 0 33
1 34 59 45 67 13 116 42 147 88 17 26 20 40 14 78 -14 93 -75 138 -183 133
l-68 -3 33 26 c17 15 38 25 45 22 8 -3 13 0 11 7 -2 7 3 15 10 17 6 3 12 -3
12 -12 0 -9 5 -13 11 -10 6 4 8 13 5 21 -3 8 1 14 8 14 8 0 21 3 30 6 13 5 16
-1 16 -25 0 -17 5 -31 10 -31 6 0 10 14 10 30 0 17 5 30 10 30 6 0 10 -15 10
-33 0 -21 7 -36 20 -45 19 -11 20 -10 19 20 -1 24 -3 27 -6 10 -2 -12 -9 -20
-14 -17 -13 8 -11 55 1 55 19 0 74 -32 93 -53 21 -25 23 -95 1 -125 -15 -22
-15 -22 31 -22 l47 0 -3 -34 c-2 -19 0 -38 4 -42 4 -4 7 11 7 34 l0 42 33 -13
c59 -25 68 -91 16 -129 -24 -18 -84 -27 -194 -28 -28 0 -48 -7 -65 -23 -14
-13 -55 -47 -92 -76 -38 -29 -68 -54 -68 -54 0 -1 52 -1 115 1 63 2 115 0 115
-5 -1 -4 -57 -51 -125 -103 -116 -88 -123 -95 -96 -98 24 -3 54 16 173 109 79
61 149 114 156 116 31 12 6 18 -66 15 -43 -2 -96 -2 -117 0 l-39 3 43 34 c36
29 53 35 107 39 54 3 64 2 64 -12 0 -9 7 -16 15 -16 8 0 14 5 13 12 -2 6 12
14 29 18 45 10 80 35 103 73 16 26 28 33 62 38 l43 6 -41 1 c-38 2 -42 5 -48
33 -8 43 -64 96 -109 104 -35 7 -37 9 -35 46 3 80 -96 157 -209 165 -32 2 -69
0 -83 -5z m49 -207 c17 -14 31 -34 31 -45 0 -15 -7 -19 -38 -19 l-39 0 -1 45
c-1 25 2 45 7 45 5 0 23 -12 40 -26z"/>
<path d="M420 720 c0 -5 5 -10 10 -10 6 0 10 5 10 10 0 6 -4 10 -10 10 -5 0
-10 -4 -10 -10z"/>
<path d="M552 690 c0 -19 2 -27 5 -17 2 9 2 25 0 35 -3 9 -5 1 -5 -18z"/>
<path d="M1040 620 c-32 -79 -36 -120 -6 -63 13 26 19 29 51 25 27 -3 39 -10
45 -28 5 -13 14 -24 20 -24 5 0 10 1 10 3 0 14 -69 162 -77 164 -6 2 -25 -33
-43 -77z m66 -17 c-2 -3 -15 -3 -28 -1 -24 3 -24 4 -10 38 l14 35 14 -34 c8
-19 12 -36 10 -38z"/>
<path d="M1148 695 c-6 -7 19 -121 33 -147 13 -24 29 -14 29 18 0 20 5 24 29
24 16 0 39 10 54 24 l25 23 -19 32 c-17 28 -23 31 -69 31 l-50 0 -2 -57 -2
-58 -3 50 c-4 48 -13 71 -25 60z m131 -33 c14 -27 -5 -52 -39 -52 -31 0 -42
23 -17 34 10 5 10 7 0 12 -23 10 -14 24 17 24 18 0 33 -7 39 -18z"/>
<path d="M1347 633 c-42 -109 -42 -107 -28 -99 7 5 16 18 21 30 12 32 77 24
92 -10 14 -30 32 -32 22 -2 -15 48 -64 148 -72 148 -5 0 -21 -30 -35 -67z m57
-10 c6 -20 4 -23 -18 -23 -29 0 -31 7 -14 45 12 27 19 23 32 -22z"/>
<path d="M1501 673 c-12 -16 -26 -34 -32 -42 -7 -7 -8 -16 -3 -20 5 -3 15 -18
23 -33 8 -16 17 -28 21 -28 3 0 16 -9 28 -20 12 -12 22 -16 22 -10 0 7 6 10
12 8 14 -5 54 40 44 49 -3 3 -14 -1 -24 -10 -23 -21 -41 -21 -70 -1 -29 20
-28 44 2 44 30 0 50 24 43 50 -6 23 6 26 26 5 21 -20 30 -5 10 17 -25 28 -77
24 -102 -9z m49 -18 c0 -20 -5 -25 -25 -25 -29 0 -32 12 -9 34 22 23 34 20 34
-9z"/>
<path d="M1634 682 c9 -27 -3 -54 -21 -48 -9 4 -7 -4 7 -21 14 -18 19 -35 15
-50 -4 -16 -1 -23 10 -23 8 0 18 -1 22 -2 5 -2 6 14 5 35 l-4 37 46 0 c45 0
46 0 46 -33 0 -41 4 -45 36 -39 24 4 25 6 22 81 -3 75 -3 76 -32 79 -27 3 -28
2 -24 -32 l4 -36 -49 0 -49 0 4 33 c3 27 -1 32 -20 35 -20 3 -23 0 -18 -16z"/>
<path d="M1832 618 l3 -83 53 -3 c31 -2 52 1 52 7 0 6 -20 11 -45 11 -25 0
-45 4 -45 8 0 16 24 32 50 33 17 1 13 4 -15 9 l-40 7 43 2 c54 1 55 21 1 21
-33 0 -39 3 -30 13 8 10 7 17 -1 25 -9 9 -5 12 18 13 16 1 92 5 169 8 l140 8
-178 1 -178 2 3 -82z"/>
<path d="M1720 686 c0 -2 8 -10 18 -17 15 -13 16 -12 3 4 -13 16 -21 21 -21
13z"/>
<path d="M569 627 c5 -5 19 -7 32 -5 20 3 19 5 -9 9 -20 3 -29 2 -23 -4z"/>
<path d="M1705 580 c10 -11 19 -19 19 -18 1 2 8 11 15 21 12 15 10 17 -19 17
-32 0 -33 0 -15 -20z"/>
<path d="M1265 570 c-3 -5 -1 -10 4 -10 6 0 11 5 11 10 0 6 -2 10 -4 10 -3 0
-8 -4 -11 -10z"/>
<path d="M1220 555 c0 -8 7 -15 16 -15 14 0 14 3 4 15 -7 8 -14 15 -16 15 -2
0 -4 -7 -4 -15z"/>
<path d="M1728 543 c7 -3 16 -2 19 1 4 3 -2 6 -13 5 -11 0 -14 -3 -6 -6z"/>
<path d="M1544 474 c-41 -14 -81 -55 -86 -89 -5 -33 -40 -28 -71 10 l-29 35
51 0 c39 0 53 4 61 19 5 11 10 22 10 25 0 3 -58 6 -130 6 l-130 0 0 -25 c0
-23 4 -25 45 -25 l45 0 0 -111 0 -112 38 7 c20 3 47 6 60 6 20 0 22 4 16 23
-4 12 -10 37 -14 55 -7 29 -6 32 15 32 16 0 27 -11 41 -41 47 -105 188 -104
232 1 10 22 21 40 25 40 10 0 1 -65 -13 -90 -15 -29 -13 -30 40 -30 l50 0 0
45 c0 42 2 45 28 45 22 0 33 -9 54 -45 23 -38 32 -45 58 -45 22 0 29 4 24 13
-4 6 -18 29 -31 49 -22 36 -22 39 -6 56 10 10 23 27 29 38 17 28 30 8 17 -26
-8 -22 -8 -40 0 -67 15 -52 25 -63 58 -63 l29 0 0 83 0 82 36 -63 c20 -35 41
-61 47 -59 7 2 26 30 44 63 l32 59 1 -82 0 -82 75 0 c61 0 84 4 117 23 46 26
60 46 31 46 -30 0 -130 111 -143 159 -11 41 -12 42 -48 39 -33 -3 -39 -8 -71
-70 -20 -37 -39 -68 -42 -68 -3 0 -20 32 -39 70 -32 66 -36 70 -67 70 l-32 0
-4 -122 -3 -123 -2 123 c-2 97 -5 122 -16 122 -12 0 -12 -5 -3 -30 8 -22 8
-33 0 -41 -8 -8 -15 -3 -27 20 -9 17 -25 35 -35 41 -18 9 -211 15 -211 6 0 -2
7 -20 15 -39 16 -39 20 -77 7 -77 -4 0 -13 15 -20 33 -25 71 -91 104 -158 81z
m26 -73 c0 -17 4 -33 10 -36 11 -7 25 39 15 54 -3 6 1 11 9 11 46 0 65 -111
26 -150 -63 -63 -152 31 -109 113 24 45 49 48 49 8z m326 4 c9 -36 -11 -55
-57 -55 -39 0 -39 0 -39 40 l0 40 45 0 c39 0 45 -3 51 -25z"/>
<path d="M1039 467 c-40 -31 -50 -84 -20 -111 11 -10 17 -25 14 -34 -4 -13 -3
-14 5 -4 7 11 18 11 48 3 53 -15 68 -26 61 -45 -8 -21 -62 -21 -101 -1 -16 9
-30 14 -31 13 -1 -2 -8 -13 -14 -26 -11 -21 -9 -24 26 -38 54 -23 140 -15 165
16 43 53 11 107 -77 132 -38 10 -50 18 -50 33 0 17 7 20 45 20 30 0 44 -4 43
-12 -4 -18 20 -6 35 17 10 16 8 21 -10 35 -27 18 -116 20 -139 2z"/>
<path d="M2318 468 c5 -7 12 -22 15 -33 4 -19 5 -18 6 2 1 28 21 41 21 14 0
-23 16 -37 23 -19 3 10 7 10 19 1 18 -16 28 -7 28 24 0 14 -6 23 -15 23 -8 0
-15 -5 -15 -12 0 -9 -3 -9 -12 0 -17 17 -84 16 -70 0z"/>
<path d="M2042 180 c0 -14 2 -19 5 -12 2 6 2 18 0 25 -3 6 -5 1 -5 -13z"/>
<path d="M2232 180 c0 -14 2 -19 5 -12 2 6 2 18 0 25 -3 6 -5 1 -5 -13z"/>
<path d="M2108 173 c7 -3 16 -2 19 1 4 3 -2 6 -13 5 -11 0 -14 -3 -6 -6z"/>
</g>
</svg>
